<?xml version="1.0" encoding="UTF-8"?>
<svg width="32px" height="32px" viewBox="0 0 32 32" version="1.1" xmlns="http://www.w3.org/2000/svg" xmlns:xlink="http://www.w3.org/1999/xlink">
    <g stroke="none" stroke-width="1" fill="none" fill-rule="evenodd">
        <path d="M16,0 C24.8365385,0 32,7.16346154 32,16 C32,24.8365385 24.8365385,32 16,32 C7.16346154,32 0,24.8365385 0,16 C0,7.16346154 7.16346154,0 16,0 Z" fill="#000000"></path>
        <path d="M11.1257143,8.65714286 L11.1257143,23.3428571 L14.125381,23.3428571 L14.125381,17.5619048 L21.9771429,17.5619048 L21.9771429,23.3428571 L24.9770286,23.3428571 L24.9770286,8.65714286 L21.9771429,8.65714286 L21.9771429,14.4380952 L14.125381,14.4380952 L14.125381,8.65714286 L11.1257143,8.65714286 Z" fill="#FFFFFF"></path>
        <path d="M6.93333333,10.2190476 L6.93333333,11.7809524 L9.46666667,11.7809524 L9.46666667,10.2190476 L6.93333333,10.2190476 Z M6.93333333,14.4380952 L6.93333333,16 L9.46666667,16 L9.46666667,14.4380952 L6.93333333,14.4380952 Z M6.93333333,18.6571429 L6.93333333,20.2190476 L9.46666667,20.2190476 L9.46666667,18.6571429 L6.93333333,18.6571429 Z" fill="#FFFFFF"></path>
    </g>
</svg>
